<svg id="Capa_1" enable-background="new 0 0 512 512" height="512" viewBox="0 0 512 512" width="512" xmlns="http://www.w3.org/2000/svg"><g><g><g><g><path d="m356 504.5h-200c-16.569 0-30-13.431-30-30v-437c0-16.569 13.431-30 30-30h200c16.569 0 30 13.431 30 30v437c0 16.569-13.431 30-30 30z" fill="#d8ecfe"/><path d="m356 7.5h-35.98c16.569 0 30 13.431 30 30v437c0 16.569-13.431 30-30 30h35.98c16.569 0 30-13.431 30-30v-437c0-16.569-13.431-30-30-30z" fill="#c4e2ff"/></g><path d="m301.225 47.128h-96.191c-5.523 0-10-4.477-10-10v-29.628h116.191v29.628c0 5.523-4.477 10-10 10z" fill="#3f6e90"/></g><g><path d="m324.84 145.968c0 20.878-9.294 39.585-23.971 52.21-12.05 10.365-27.728 11.616-44.87 11.616s-32.82-1.251-44.869-11.616c-14.677-12.625-23.971-31.332-23.971-52.21 0-38.02 30.821-68.84 68.84-68.84s68.841 30.821 68.841 68.84z" fill="#fff"/><path d="m256 77.128c-5.154 0-10.169.584-15 1.658 30.803 6.848 53.84 34.317 53.84 67.182s-23.038 60.333-53.84 67.182c4.831 1.074 13.42-1.9 18.574-1.9 17.141 0 29.245-2.706 41.295-13.071 14.677-12.625 23.971-31.332 23.971-52.21 0-38.02-30.82-68.841-68.84-68.841z" fill="#f9f7f8"/><path d="m256 157.307c-23.474 0-42.749 17.949-44.868 40.87 12.05 10.365 27.726 16.632 44.868 16.632s32.818-6.267 44.868-16.632c-2.119-22.921-21.394-40.87-44.868-40.87z" fill="#f28a97"/><path d="m289.595 172.35c-8.494 20.439-26.554 35.9-48.595 40.801.017.006.033.012.049.018 4.814 1.067 9.815 1.64 14.951 1.64 17.141 0 32.818-6.267 44.868-16.632-.914-9.882-5.021-18.834-11.273-25.827z" fill="#f07281"/><path d="m256 166.796c-13.131 0-23.776-10.645-23.776-23.776v-9.068c0-13.131 10.645-23.776 23.776-23.776 13.131 0 23.776 10.645 23.776 23.776v9.068c0 13.131-10.645 23.776-23.776 23.776z" fill="#ffcebf"/><path d="m256 110.176c-4.55 0-8.8 1.28-12.414 3.497 6.815 4.181 11.362 11.698 11.362 20.279v9.068c0 8.581-4.547 16.098-11.362 20.279 3.614 2.217 7.864 3.497 12.414 3.497 13.131 0 23.776-10.645 23.776-23.776v-9.068c0-13.131-10.645-23.776-23.776-23.776z" fill="#ffb09e"/></g><g><path d="m470.103 132.666c0 16.869-7.51 31.985-19.368 42.186-9.736 8.375-23.203 5.143-37.053 5.143s-25.72 3.232-35.456-5.143c-11.859-10.201-19.368-25.316-19.368-42.186 0-30.72 24.903-55.623 55.623-55.623s55.622 24.904 55.622 55.623z" fill="#f9f7f8"/><path d="m414.481 77.043c-5.2 0-10.226.729-15 2.063 23.43 6.549 40.623 28.04 40.623 53.56s-17.193 47.01-40.623 53.559c4.774 1.334 11.327-1.855 16.527-1.855 13.44 0 24.24-.848 33.854-8.783 12.362-10.202 20.242-25.642 20.242-42.921 0-30.719-24.904-55.623-55.623-55.623z" fill="#efedef"/><path d="m414.481 141.827c-18.967 0-34.541 14.503-36.253 33.023 9.736 8.375 22.403 13.439 36.253 13.439s26.517-5.064 36.253-13.439c-1.713-18.52-17.286-33.023-36.253-33.023z" fill="#aee49e"/><path d="m450.734 174.85c-.929-10.053-5.949-18.917-13.374-24.925-5.736 17.574-19.983 31.298-37.879 36.301.004.005.013.016.018.022 4.766 1.33 9.791 2.042 14.982 2.042 13.85-.001 26.516-5.065 36.253-13.44z" fill="#8bd8a5"/><path d="m414.481 149.495c-10.61 0-19.211-8.601-19.211-19.211v-7.327c0-10.61 8.601-19.211 19.211-19.211 10.61 0 19.211 8.601 19.211 19.211v7.327c-.001 10.61-8.602 19.211-19.211 19.211z" fill="#ffcebf"/><path d="m414.481 103.746c-4.151 0-7.984 1.33-11.125 3.568 4.887 3.483 8.085 9.184 8.085 15.642v7.327c0 6.459-3.198 12.16-8.085 15.642 3.141 2.238 6.974 3.568 11.125 3.568 10.61 0 19.211-8.601 19.211-19.211v-7.327c-.001-10.608-8.602-19.209-19.211-19.209z" fill="#ffb09e"/></g><g><path d="m153.142 132.666c0 16.869-7.51 31.985-19.368 42.186-9.736 8.375-22.404 6.933-36.254 6.933s-26.518 1.442-36.255-6.933c-11.859-10.201-19.368-25.316-19.368-42.186 0-30.72 24.903-55.623 55.623-55.623s55.622 24.904 55.622 55.623z" fill="#f9f7f8"/><path d="m97.519 77.043c-5.2 0-10.226.729-15 2.063 23.43 6.549 40.623 28.04 40.623 53.56s-17.193 47.01-40.623 53.559c4.774 1.334 9.801-1.199 15-1.199 13.85 0 26.518-1.799 36.254-10.174 11.859-10.201 19.368-25.316 19.368-42.186.001-30.719-24.902-55.623-55.622-55.623z" fill="#efedef"/><path d="m97.519 141.827c-18.967 0-34.541 14.503-36.253 33.023 9.736 8.375 22.403 13.439 36.253 13.439s26.517-5.064 36.253-13.439c-1.712-18.52-17.286-33.023-36.253-33.023z" fill="#fddf80"/><path d="m133.772 174.85c-.929-10.053-5.949-18.917-13.374-24.925-5.736 17.574-19.983 31.298-37.879 36.301.004.005.013.016.018.022 4.766 1.33 9.791 2.042 14.982 2.042 13.85-.001 26.517-5.065 36.253-13.44z" fill="#f9d070"/><path d="m97.519 149.495c-10.61 0-19.211-8.601-19.211-19.211v-7.327c0-10.61 8.601-19.211 19.211-19.211 10.61 0 19.211 8.601 19.211 19.211v7.327c0 10.61-8.601 19.211-19.211 19.211z" fill="#ffcebf"/><path d="m97.519 103.746c-4.151 0-7.984 1.33-11.125 3.568 4.887 3.483 8.085 9.184 8.085 15.642v7.327c0 6.459-3.198 12.16-8.085 15.642 3.141 2.238 6.974 3.568 11.125 3.568 10.61 0 19.211-8.601 19.211-19.211v-7.327c0-10.608-8.601-19.209-19.211-19.209z" fill="#ffb09e"/></g><g><path d="m486.007 401.182h-143.053c-10.213 0-18.493-8.279-18.493-18.493v-81.849c0-10.213 8.279-18.493 18.493-18.493h143.053c10.213 0 18.493 8.279 18.493 18.493v81.849c0 10.213-8.279 18.493-18.493 18.493z" fill="#f28a97"/><path d="m486.007 282.347h-30c10.213 0 18.493 8.28 18.493 18.493v81.849c0 10.213-8.279 18.493-18.493 18.493h30c10.213 0 18.493-8.28 18.493-18.493v-81.849c0-10.213-8.279-18.493-18.493-18.493z" fill="#f07281"/><g><path d="m393.096 313.743c0-2.063 2.243-3.353 4.037-2.321l48.739 28.022c1.794 1.032 1.794 3.611 0 4.642l-48.739 28.022c-1.794 1.032-4.037-.258-4.037-2.321z" fill="#fff"/></g></g><g><path d="m169.046 401.182h-143.053c-10.213 0-18.493-8.279-18.493-18.493v-81.849c0-10.213 8.279-18.493 18.493-18.493h143.053c10.213 0 18.493 8.279 18.493 18.493v81.849c0 10.213-8.28 18.493-18.493 18.493z" fill="#f28a97"/><path d="m169.046 282.347h-30c10.213 0 18.493 8.28 18.493 18.493v81.849c0 10.213-8.279 18.493-18.493 18.493h30c10.213 0 18.493-8.28 18.493-18.493v-81.849c0-10.213-8.28-18.493-18.493-18.493z" fill="#f07281"/><g><path d="m76.134 313.743c0-2.063 2.243-3.353 4.037-2.321l48.739 28.022c1.794 1.032 1.794 3.611 0 4.642l-48.739 28.022c-1.794 1.032-4.037-.258-4.037-2.321z" fill="#fff"/></g></g><g><g><path d="m341.673 457.632h-8.202l-75.297-14.639-79.645 14.639h-8.202c-8.284 0-15-6.716-15-15v-110.185c0-8.284 6.716-15 15-15h171.346c8.284 0 15 6.716 15 15v110.186c0 8.284-6.716 14.999-15 14.999z" fill="#fff"/><path d="m341.673 317.447h-30c8.284 0 15 6.716 15 15v110.186c0 8.284-6.716 15-15 15h30c8.284 0 15-6.716 15-15v-110.186c0-8.285-6.715-15-15-15z" fill="#f9f7f8"/><g><path d="m234.103 457.632 44.824-48.926c2.964-3.235 8.075-3.201 10.995.075l43.55 48.852h-99.369z" fill="#8bd8a5"/><path d="m325.428 448.61c-2.31 5.308-7.596 9.023-13.755 9.023h21.798z" fill="#7ece96"/><path d="m178.529 457.632 44.304-60.438c2.984-4.071 9.077-4.032 12.009.078l43.055 60.36z" fill="#aee49e"/></g><circle cx="303.1" cy="361.689" fill="#fddf80" r="17.5"/></g></g></g><path d="m105.02 252.348v-34.059c0-4.143-3.357-7.5-7.5-7.5s-7.5 3.357-7.5 7.5v34.059c0 4.143 3.357 7.5 7.5 7.5s7.5-3.358 7.5-7.5zm380.99 22.502h-92.51v-82.665c6.568 2.325 13.625 3.604 20.98 3.604 34.434 0 63.123-28.296 63.123-63.123 0-11.608-3.18-22.959-9.196-32.824-2.157-3.536-6.773-4.654-10.308-2.499-3.537 2.156-4.655 6.771-2.499 10.309 4.581 7.513 7.003 16.162 7.003 25.015 0 10.025-3.085 19.341-8.351 27.057-3.428-7.305-8.83-13.613-15.591-18.108 1.619-3.442 2.53-7.281 2.53-11.331v-7.327c0-14.729-11.982-26.711-26.711-26.711-14.728 0-26.71 11.982-26.71 26.711v7.327c0 4.043.908 7.876 2.522 11.315-1.927 1.274-3.762 2.694-5.481 4.273-4.3 3.942-7.716 8.644-10.128 13.815-5.25-7.708-8.325-17.012-8.325-27.021 0-26.534 21.588-48.122 48.122-48.122 6.319 0 12.458 1.203 18.246 3.577 3.832 1.57 8.214-.263 9.785-4.094 1.571-3.833-.262-8.214-4.094-9.785-7.604-3.117-15.657-4.698-23.938-4.698-7.354 0-14.412 1.277-20.98 3.599v-35.644c.001-20.678-16.821-37.5-37.499-37.5h-200c-20.678 0-37.5 16.822-37.5 37.5v35.643c-6.569-2.322-13.627-3.599-20.98-3.599-34.807 0-63.123 28.316-63.123 63.122 0 34.789 28.71 63.123 63.123 63.123 7.355 0 14.413-1.279 20.98-3.604v82.665h-92.51c-14.331 0-25.99 11.659-25.99 25.99v81.851c0 14.33 11.659 25.989 25.99 25.989h92.51v65.82c0 20.678 16.822 37.5 37.5 37.5h200c20.678 0 37.5-16.822 37.5-37.5v-65.82h92.51c14.331 0 25.99-11.659 25.99-25.989v-81.851c0-14.331-11.659-25.99-25.99-25.99zm-83.239-151.893c0-6.457 5.253-11.711 11.71-11.711s11.711 5.254 11.711 11.711v7.327c0 6.457-5.254 11.711-11.711 11.711s-11.71-5.254-11.71-11.711zm-7.818 33.968c1.676-1.54 3.524-2.835 5.49-3.929 4.082 2.532 8.89 3.999 14.037 3.999 5.156 0 9.972-1.472 14.058-4.012 7.073 3.96 12.233 10.805 14.087 18.681-7.921 5.733-17.642 9.125-28.146 9.125-10.507 0-20.232-3.395-28.155-9.132 1.31-5.627 4.292-10.758 8.629-14.732zm-192.419-141.925h101.19v22.128c0 1.379-1.121 2.5-2.5 2.5h-96.19c-1.379 0-2.5-1.121-2.5-2.5zm-69.034 22.5c0-12.406 10.094-22.5 22.5-22.5h31.534v22.128c0 9.649 7.851 17.5 17.5 17.5h96.19c9.649 0 17.5-7.851 17.5-17.5v-22.128h37.276c12.406 0 22.5 10.094 22.5 22.5v43.346c-16.388 11.413-27.142 30.379-27.142 51.82 0 21.413 10.614 40.219 27.142 51.817v90.366h-35.55c-14.331 0-25.99 11.659-25.99 25.99v9.106h-50.279c-4.143 0-7.5 3.357-7.5 7.5s3.357 7.5 7.5 7.5h74.992c4.136 0 7.5 3.364 7.5 7.5v68.675c0 .02-.003.039-.003.058s.003.039.003.058v41.395c0 4.136-3.364 7.5-7.5 7.5h-4.838l-41.32-46.348c-2.805-3.142-6.829-4.957-11.041-4.981h-.084c-4.176 0-8.18 1.764-10.99 4.84l-13.943 15.221-18.508-25.947c-2.771-3.884-7.272-6.221-12.042-6.252h-.097c-4.734 0-9.225 2.273-12.025 6.095l-42.058 57.373h-4.399c-4.136 0-7.5-3.364-7.5-7.5v-41.395c0-.02.003-.039.003-.058s-.003-.039-.003-.058v-68.675c0-4.136 3.364-7.5 7.5-7.5h61.354c4.143 0 7.5-3.357 7.5-7.5s-3.357-7.5-7.5-7.5h-36.642v-9.106c0-14.331-11.659-25.99-25.99-25.99h-35.55v-90.366c16.596-11.613 27.142-30.319 27.142-51.817 0-21.44-10.754-40.406-27.142-51.82zm183.235 412.63h-34.978l-13.396-18.781 16.031-17.499zm-53.4.003h-70.01l35.483-48.403zm-205.612-290.444c-5.251-7.709-8.326-17.012-8.326-27.023 0-26.534 21.588-48.122 48.123-48.122 26.534 0 48.122 21.588 48.122 48.122 0 10.025-3.085 19.341-8.35 27.056-3.428-7.305-8.83-13.612-15.592-18.108 1.619-3.442 2.529-7.281 2.529-11.33v-7.327c0-14.729-11.982-26.711-26.71-26.711-14.729 0-26.711 11.982-26.711 26.711v7.327c0 4.043.908 7.877 2.523 11.316-1.927 1.274-3.761 2.694-5.48 4.272-4.3 3.942-7.716 8.645-10.128 13.817zm51.506-36.732v7.327c0 6.457-5.253 11.711-11.71 11.711s-11.711-5.254-11.711-11.711v-7.327c0-6.457 5.254-11.711 11.711-11.711s11.71 5.254 11.71 11.711zm-11.709 57.832c-10.507 0-20.231-3.395-28.154-9.131 1.308-5.628 4.291-10.759 8.628-14.733 1.676-1.539 3.523-2.835 5.49-3.928 4.082 2.532 8.89 3.999 14.037 3.999 5.155 0 9.972-1.472 14.058-4.013 7.073 3.96 12.234 10.805 14.087 18.681-7.922 5.732-17.643 9.125-28.146 9.125zm-71.53 212.891c-6.06 0-10.99-4.93-10.99-10.989v-81.851c0-6.06 4.931-10.99 10.99-10.99h143.06c6.06 0 10.99 4.931 10.99 10.99v9.106h-9.713c-12.406 0-22.5 10.094-22.5 22.5v61.233h-121.837zm352.51 80.82c0 12.406-10.094 22.5-22.5 22.5h-200c-12.406 0-22.5-10.094-22.5-22.5v-65.82h14.327v33.953c0 12.406 10.094 22.5 22.5 22.5h171.346c12.406 0 22.5-10.094 22.5-22.5v-33.953h14.327zm118.5-91.81c0 6.06-4.931 10.989-10.99 10.989h-121.837v-61.233c0-12.406-10.094-22.5-22.5-22.5h-9.713v-9.106c0-6.06 4.931-10.99 10.99-10.99h143.06c6.06 0 10.99 4.931 10.99 10.99zm-90.02-164.401v34.059c0 4.143 3.357 7.5 7.5 7.5s7.5-3.357 7.5-7.5v-34.059c0-4.143-3.357-7.5-7.5-7.5s-7.5 3.357-7.5 7.5zm-274.332 114.652-48.737-28.021c-3.145-1.809-7.05-1.806-10.192.012-3.137 1.814-5.085 5.19-5.085 8.811v56.043c0 3.62 1.948 6.996 5.085 8.811 3.141 1.817 7.047 1.822 10.19.013l48.741-28.022c3.149-1.813 5.105-5.192 5.105-8.822s-1.955-7.011-5.107-8.825zm-49.014 28.525v-39.402l34.267 19.701zm219.466 25.223c13.785 0 25-11.215 25-25s-11.215-25-25-25-25 11.215-25 25 11.214 25 25 25zm0-35c5.514 0 10 4.486 10 10s-4.486 10-10 10-10-4.486-10-10 4.486-10 10-10zm-47.1-129.38c41.531 0 76.341-34.258 76.341-76.34 0-42.095-34.246-76.341-76.341-76.341s-76.341 34.246-76.341 76.341c0 42.102 34.818 76.34 76.341 76.34zm0-15c-13.81 0-26.565-4.59-36.829-12.321 1.552-7.774 5.532-14.879 11.458-20.31 2.439-2.237 5.138-4.117 8.048-5.633 4.963 3.314 10.92 5.251 17.323 5.251 6.396 0 12.347-1.933 17.307-5.241 10.028 5.245 17.27 14.874 19.504 25.947-10.26 7.722-23.009 12.307-36.811 12.307zm-16.275-64.288v-9.068c0-8.975 7.301-16.276 16.275-16.276s16.275 7.302 16.275 16.276v9.068c0 8.975-7.301 16.275-16.275 16.275s-16.275-7.301-16.275-16.275zm16.275-58.393c33.823 0 61.341 27.518 61.341 61.341 0 13.914-4.664 26.755-12.501 37.058-4.17-10.424-11.629-19.385-21.219-25.357 2.329-4.373 3.654-9.359 3.654-14.649v-9.068c0-17.246-14.03-31.276-31.275-31.276s-31.275 14.03-31.275 31.276v9.068c0 5.284 1.322 10.263 3.646 14.633-2.796 1.731-5.43 3.723-7.878 5.968-5.923 5.429-10.455 12.06-13.356 19.374-7.822-10.298-12.477-23.127-12.477-37.027-.001-33.823 27.517-61.341 61.34-61.341zm193.61 248.313-48.737-28.021c-3.146-1.809-7.051-1.806-10.192.012-3.137 1.814-5.085 5.19-5.085 8.811v56.043c0 3.62 1.948 6.996 5.085 8.811 3.141 1.817 7.047 1.822 10.19.013l48.741-28.022c3.149-1.813 5.105-5.192 5.105-8.822s-1.955-7.011-5.107-8.825zm-49.014 28.525v-39.402l34.267 19.701zm-144.596-124.157c-4.143 0-7.5 3.357-7.5 7.5v42.638c0 4.143 3.357 7.5 7.5 7.5s7.5-3.357 7.5-7.5v-42.638c0-4.143-3.357-7.5-7.5-7.5z"/></g></svg>