<svg id="Layer_1" enable-background="new 0 0 256 256" height="512" viewBox="0 0 256 256" width="512" xmlns="http://www.w3.org/2000/svg"><g><g><path d="m220.067 209.96v-120.311h-26.225l-.56 116.055h-25.665v-96.555h-26.784v100.738h-25.665v-71.738h-26.784v69.713h-25.665v-45.471h-26.785v86.626h184.133z" fill="#5fcdff"/><path d="m35.933 162.39h15v86.628h-15z" fill="#73d7f9"/><path d="m205.063 89.653h15v159.364h-15z" fill="#30b6ff"/><path d="m37.967 6.982v67.613h25.131l16.919 29.754c2.277 4.004 8.083 3.9 10.215-.182l15.447-29.572h112.352v-67.613z" fill="#f9d335"/><path d="m60.707 25.422c2.41 0 4.82.933 6.658 2.79l1.814 1.837 1.818-1.837c2.865-2.895 7.109-3.535 10.587-1.922.991.456 1.918 1.099 2.732 1.922 3.676 3.714 3.676 9.741 0 13.459l-1.334 1.344-12.441 12.57c-.75.761-1.971.761-2.72 0l-11.958-12.082-1.818-1.833c-3.679-3.718-3.679-9.745 0-13.459 1.842-1.856 4.252-2.789 6.662-2.789z" fill="#ff4a73"/><path d="m37.97 6.979h15v67.62h-15z" fill="#f9e27d"/><path d="m92.47 99.869-2.24 4.3c-2.13 4.08-7.94 4.18-10.21.18l-16.92-29.75h15z" fill="#f9e27d"/><path d="m203.03 6.979h15v67.62h-15z" fill="#f2c300"/></g><g fill="#5f266d"><path d="m108.343 45.511c1.019 0 1.991-.121 2.907-.359-.365.51-.776.973-1.235 1.389-1.256 1.188-2.921 1.953-4.743 2.204-1.217.122-2.061.197-2.682.132-1.192-.124-2.209.812-2.209 1.989v3.134c0 1.068.839 1.947 1.906 1.998 1.293.057 2.607-.034 3.846-.229 3.623-.415 6.96-1.958 9.389-4.337 2.501-2.423 5.482-6.942 5.482-14.71 0-8.458-4.458-13.924-11.356-13.924-6.539 0-11.661 5.294-11.661 12.053 0 6.176 4.355 10.66 10.356 10.66zm1.001-15.797c3.296 0 3.788 4.091 3.788 6.529 0 .207-.029.309-.071.377-.729 1.236-2.168 1.975-3.848 1.975-2.536 0-3.44-2.068-3.44-4.005 0-2.871 1.469-4.876 3.571-4.876z"/><path d="m135.891 45.511c1.019 0 1.991-.121 2.907-.359-.365.51-.776.973-1.235 1.389-1.256 1.188-2.921 1.953-4.743 2.204-1.217.122-2.061.197-2.682.132-1.189-.124-2.209.809-2.209 1.989v3.134c0 1.068.839 1.947 1.906 1.998.22.01.477.018.765.018.81 0 1.87-.056 3.081-.246 3.624-.415 6.961-1.958 9.389-4.337 2.501-2.423 5.482-6.942 5.482-14.71 0-8.458-4.458-13.924-11.356-13.924-6.539 0-11.661 5.294-11.661 12.053.001 6.175 4.356 10.659 10.356 10.659zm1.001-15.797c3.296 0 3.788 4.091 3.788 6.529 0 .207-.029.309-.071.377-.729 1.236-2.168 1.975-3.848 1.975-2.536 0-3.44-2.068-3.44-4.005.001-2.871 1.469-4.876 3.571-4.876z"/><path d="m163.439 45.511c1.019 0 1.991-.121 2.907-.359-.365.51-.776.973-1.235 1.389-1.256 1.188-2.921 1.953-4.743 2.204-1.217.122-2.062.197-2.682.132-1.194-.124-2.209.814-2.209 1.989v3.134c0 1.068.839 1.947 1.906 1.998 1.293.057 2.607-.034 3.846-.229 3.623-.415 6.96-1.958 9.389-4.337 2.501-2.423 5.482-6.942 5.482-14.71 0-8.458-4.458-13.924-11.356-13.924-6.539 0-11.661 5.294-11.661 12.053.001 6.176 4.356 10.66 10.356 10.66zm1.001-15.797c3.296 0 3.788 4.091 3.788 6.529 0 .207-.029.309-.071.377-.729 1.236-2.168 1.975-3.848 1.975-2.536 0-3.44-2.068-3.44-4.005.001-2.871 1.469-4.876 3.571-4.876z"/><path d="m190.987 45.511c1.019 0 1.991-.121 2.907-.359-.365.51-.776.973-1.235 1.389-1.256 1.188-2.921 1.953-4.743 2.204-1.217.122-2.061.197-2.682.132-1.186-.123-2.209.807-2.209 1.989v3.134c0 1.068.839 1.947 1.906 1.998 1.293.057 2.607-.034 3.846-.229 3.623-.415 6.96-1.958 9.389-4.337 2.501-2.423 5.482-6.942 5.482-14.71 0-8.458-4.458-13.924-11.356-13.924-6.539 0-11.661 5.294-11.661 12.053.001 6.176 4.356 10.66 10.356 10.66zm1.001-15.797c3.296 0 3.788 4.091 3.788 6.529 0 .207-.029.309-.071.377-.729 1.236-2.168 1.975-3.848 1.975-2.536 0-3.44-2.068-3.44-4.005.001-2.871 1.469-4.876 3.571-4.876z"/><path d="m73.383 58.398 13.777-13.916c6.602-6.678 4.505-17.965-3.894-21.821-4.663-2.163-10.156-1.418-14.084 1.8-5.241-4.319-13.019-4.065-17.979.936-5.21 5.26-5.211 13.822.001 19.09l13.765 13.904c2.325 2.363 6.116 2.346 8.414.007zm-16.498-27.37c2.128-2.146 5.522-2.139 7.634-.006l1.813 1.836c1.564 1.584 4.122 1.586 5.688.004l1.819-1.837c1.589-1.606 4.025-2.051 6.075-1.101 3.369 1.551 4.286 6.173 1.562 8.928l-12.295 12.42-12.293-12.416c-2.138-2.16-2.138-5.672-.003-7.828z"/><path d="m37.967 78.596h22.804l15.769 27.731c1.749 3.074 5.006 4.965 8.534 4.965.058 0 .117-.001.176-.002 3.595-.063 6.863-2.083 8.528-5.271l14.325-27.424h109.929c2.209 0 4-1.791 4-4v-67.613c0-2.209-1.791-4-4-4h-180.065c-2.209 0-4 1.791-4 4v67.613c0 2.21 1.791 4.001 4 4.001zm4-67.614h172.065v59.613h-108.352c-1.49 0-2.856.828-3.545 2.148l-15.447 29.571c-.435.833-1.176.969-1.58.977-.405.003-1.149-.104-1.613-.92l-16.919-29.753c-.711-1.25-2.039-2.022-3.477-2.022h-21.132z"/><path d="m250.612 245.018h-26.545v-155.369c0-2.209-1.791-4-4-4h-26.225c-2.202 0-3.989 1.779-4 3.98l-.541 112.074h-17.684v-92.555c0-2.209-1.791-4-4-4h-26.785c-2.209 0-4 1.791-4 4v96.738h-17.665v-67.738c0-2.209-1.791-4-4-4h-26.783c-2.209 0-4 1.791-4 4v65.713h-17.665v-41.471c0-2.209-1.791-4-4-4h-26.784c-2.209 0-4 1.791-4 4v82.626h-26.547c-2.209 0-4 1.791-4 4s1.791 4 4 4h245.225c2.209 0 4-1.791 4-4s-1.792-3.998-4.001-3.998zm-34.545-.001h-176.132v-78.625h18.784v41.471c0 2.209 1.791 4 4 4h25.665c2.209 0 4-1.791 4-4v-65.713h18.785v67.738c0 2.209 1.791 4 4 4h25.665c2.209 0 4-1.791 4-4v-96.738h18.785v92.555c0 2.209 1.791 4 4 4h25.665c2.202 0 3.989-1.779 4-3.98l.541-112.074h18.244v151.366z"/><path d="m194.177 222.488h-7.184c-2.209 0-4 1.791-4 4s1.791 4 4 4h7.184c2.209 0 4-1.791 4-4s-1.791-4-4-4z"/><path d="m171.993 222.488h-23c-2.209 0-4 1.791-4 4s1.791 4 4 4h23c2.209 0 4-1.791 4-4s-1.791-4-4-4z"/></g></g></svg>