<svg id="Capa_1" enable-background="new 0 0 512 512" height="512" viewBox="0 0 512 512" width="512" xmlns="http://www.w3.org/2000/svg"><g><g><path d="m151.515 504.5h-76.03v-330.079c0-5.523 4.477-10 10-10h56.03c5.523 0 10 4.477 10 10z" fill="#f58a97"/><path d="m141.515 164.421h-30c5.523 0 10 4.477 10 10v330.079h30v-330.079c0-5.523-4.477-10-10-10z" fill="#f07281"/><path d="m294.515 197.657h-14.358c-1.061 0-2.078.421-2.828 1.172l-11 11c-1.562 1.562-4.095 1.562-5.657 0l-11-11c-.75-.75-1.768-1.172-2.828-1.172h-14.358c-3.866 0-7-3.134-7-7v-31c0-3.866 3.134-7 7-7h62.03c3.866 0 7 3.134 7 7v31c-.001 3.866-3.135 7-7.001 7z" fill="#fddf80"/><path d="m294.515 152.657h-30c3.866 0 7 3.134 7 7v16.642c0 11.796-9.562 21.358-21.358 21.358-.579 0-1.14.136-1.657.372.43.197.831.459 1.172.8l11 11c1.562 1.562 4.095 1.562 5.657 0l11-11c.75-.75 1.768-1.172 2.829-1.172h14.358c3.866 0 7-3.134 7-7v-31c-.001-3.866-3.135-7-7.001-7z" fill="#f9d070"/><path d="m301.515 504.5h-76.03v-240.079c0-5.523 4.477-10 10-10h56.03c5.523 0 10 4.477 10 10z" fill="#fddf80"/><path d="m291.515 254.421h-30c5.523 0 10 4.477 10 10v240.079h30v-240.079c0-5.523-4.477-10-10-10z" fill="#f9d070"/><path d="m451.515 504.5h-76.03v-165.079c0-5.523 4.477-10 10-10h56.03c5.523 0 10 4.477 10 10z" fill="#aee49e"/><path d="m441.515 329.421h-30c5.523 0 10 4.477 10 10v165.079h30v-165.079c0-5.523-4.477-10-10-10z" fill="#8bd8a5"/><g fill="#aee49e"><circle cx="383.5" cy="239.421" r="15"/><circle cx="443.5" cy="209.421" r="15"/><circle cx="443.5" cy="269.421" r="15"/></g><path d="m112.057 119.51c.933.351 1.954.345 2.883-.016 8.741-3.399 26.124-15.01 34.187-26.394 7.144-10.087 6.087-23.991-2.515-32.804-8.503-8.711-21.855-9.132-30.35-1.215-1.561 1.455-3.964 1.454-5.525-.001-8.492-7.915-21.837-7.506-30.35 1.216-8.602 8.812-9.659 22.717-2.515 32.804 8.55 12.071 25.447 23.127 34.185 26.41z" fill="#f58a97"/><g><path d="m146.613 60.296c-8.504-8.711-21.855-9.132-30.35-1.215-.164.153-.342.281-.523.402.292.27.592.525.873.813 8.602 8.813 9.659 22.717 2.515 32.804-4.849 6.847-13.065 13.762-20.75 18.937 5.17 3.477 10.108 6.132 13.679 7.473.933.351 1.954.345 2.884-.016 8.741-3.399 26.124-15.01 34.187-26.394 7.144-10.087 6.087-23.991-2.515-32.804z" fill="#f07281"/></g></g><path d="m504.5 497h-45.485v-157.579c0-9.649-7.851-17.5-17.5-17.5h-56.029c-9.649 0-17.5 7.851-17.5 17.5v47.54c0 4.143 3.358 7.5 7.5 7.5s7.5-3.357 7.5-7.5v-47.54c0-1.379 1.122-2.5 2.5-2.5h56.029c1.378 0 2.5 1.121 2.5 2.5v157.579h-61.029v-75.039c0-4.143-3.358-7.5-7.5-7.5s-7.5 3.357-7.5 7.5v75.039h-58.971v-232.579c0-9.649-7.851-17.5-17.5-17.5h-56.029c-9.649 0-17.5 7.851-17.5 17.5v232.579h-58.971v-322.579c0-9.649-7.851-17.5-17.5-17.5h-56.03c-9.649 0-17.5 7.851-17.5 17.5v73.289c0 4.143 3.358 7.5 7.5 7.5s7.5-3.357 7.5-7.5v-73.289c0-1.379 1.122-2.5 2.5-2.5h56.029c1.378 0 2.5 1.121 2.5 2.5v322.579h-61.029v-214.29c0-4.143-3.358-7.5-7.5-7.5s-7.5 3.357-7.5 7.5v214.29h-30.485c-12.407 0-22.5-10.094-22.5-22.5v-22.5h20.473c4.142 0 7.5-3.357 7.5-7.5s-3.358-7.5-7.5-7.5h-20.473v-45h20.473c4.142 0 7.5-3.357 7.5-7.5s-3.358-7.5-7.5-7.5h-20.473v-45h20.473c4.142 0 7.5-3.357 7.5-7.5s-3.358-7.5-7.5-7.5h-20.473v-45h20.473c4.142 0 7.5-3.357 7.5-7.5s-3.358-7.5-7.5-7.5h-20.473v-45h20.473c4.142 0 7.5-3.357 7.5-7.5s-3.358-7.5-7.5-7.5h-20.473v-45h20.473c4.142 0 7.5-3.357 7.5-7.5s-3.358-7.5-7.5-7.5h-20.473v-45h20.473c4.142 0 7.5-3.357 7.5-7.5s-3.358-7.5-7.5-7.5h-20.473v-69.5c0-4.143-3.358-7.5-7.5-7.5s-7.5 3.357-7.5 7.5v467c0 20.678 16.822 37.5 37.5 37.5h467c4.142 0 7.5-3.357 7.5-7.5s-3.358-7.5-7.5-7.5zm-210.485 0h-61.029v-232.579c0-1.379 1.122-2.5 2.5-2.5h56.029c1.378 0 2.5 1.121 2.5 2.5zm-184.596-370.47s.001.001 0 0c1.312.493 2.686.739 4.06.739 1.417 0 2.834-.262 4.179-.785 9.598-3.732 28.506-16.226 37.589-29.05 9.282-13.105 7.907-30.928-3.268-42.376-10.584-10.845-26.94-12.115-38.479-3.436-11.539-8.68-27.894-7.409-38.48 3.435-11.176 11.449-12.55 29.271-3.268 42.378 9.838 13.89 28.292 25.573 37.667 29.095zm-23.665-60.995c5.446-5.579 14.165-6.279 19.871-.966 4.417 4.113 11.336 4.112 15.75-.001 5.558-5.18 14.286-4.755 19.87.968 6.116 6.265 6.857 16.034 1.761 23.229-6.67 9.419-21.357 19.608-29.549 23.225-8.197-3.515-22.541-13.447-29.464-23.225-5.096-7.195-4.355-16.964 1.761-23.23zm297.746 196.386c6.056 0 11.556-2.409 15.605-6.314l22.073 11.033c-.113.912-.178 1.838-.178 2.78 0 12.406 10.093 22.5 22.5 22.5s22.5-10.094 22.5-22.5-10.093-22.5-22.5-22.5c-6.053 0-11.552 2.407-15.6 6.309l-22.077-11.035c.112-.91.177-1.834.177-2.774 0-.942-.065-1.868-.178-2.78l22.073-11.033c4.049 3.905 9.549 6.314 15.605 6.314 12.407 0 22.5-10.094 22.5-22.5s-10.093-22.5-22.5-22.5-22.5 10.094-22.5 22.5c0 .94.065 1.864.177 2.774l-22.077 11.035c-4.048-3.902-9.547-6.309-15.6-6.309-12.407 0-22.5 10.094-22.5 22.5s10.093 22.5 22.5 22.5zm60 0c4.136 0 7.5 3.364 7.5 7.5s-3.364 7.5-7.5 7.5-7.5-3.364-7.5-7.5 3.364-7.5 7.5-7.5zm0-60c4.136 0 7.5 3.364 7.5 7.5s-3.364 7.5-7.5 7.5-7.5-3.364-7.5-7.5 3.364-7.5 7.5-7.5zm-60 30c4.136 0 7.5 3.364 7.5 7.5s-3.364 7.5-7.5 7.5-7.5-3.364-7.5-7.5 3.364-7.5 7.5-7.5zm-151.015-26.764h12.909l9.974 9.975c2.242 2.241 5.187 3.362 8.132 3.362s5.89-1.121 8.132-3.362l9.974-9.975h12.909c7.995 0 14.5-6.505 14.5-14.5v-31c0-7.995-6.505-14.5-14.5-14.5h-62.029c-7.995 0-14.5 6.505-14.5 14.5v31c-.001 7.995 6.504 14.5 14.499 14.5zm.5-45h61.029v30h-13.858c-3.072 0-5.96 1.196-8.131 3.367l-8.525 8.525-8.525-8.525c-2.171-2.171-5.06-3.367-8.131-3.367h-13.858v-30z"/></g></svg>